<?xml version="1.0" encoding="UTF-8"?>
<mxfile host="app.diagrams.net" agent="Mozilla/5.0 (Windows NT 10.0; Win64; x64) AppleWebKit/537.36 (KHTML, like Gecko) Chrome/137.0.0.0 Safari/537.36" version="28.2.8">
  <diagram id="o8LVKSwbL0h8bgJZBsLP" name="Page-1">
    <mxGraphModel dx="880" dy="1621" grid="0" gridSize="10" guides="1" tooltips="1" connect="1" arrows="1" fold="1" page="1" pageScale="1" pageWidth="827" pageHeight="1169" math="0" shadow="0">
      <root>
        <mxCell id="0" />
        <mxCell id="1" parent="0" />
        <mxCell id="THRzaVfOo93DXw_aaa8F-1" value="Tác nhân" style="swimlane;startSize=20;fontSize=16;dashed=1;" parent="1" vertex="1">
          <mxGeometry x="70" y="-20" width="270" height="640" as="geometry" />
        </mxCell>
        <mxCell id="THRzaVfOo93DXw_aaa8F-29" style="edgeStyle=none;rounded=1;orthogonalLoop=1;jettySize=auto;html=1;entryX=0.5;entryY=0;entryDx=0;entryDy=0;fontSize=16;strokeColor=#000000;exitX=0.5;exitY=1;exitDx=0;exitDy=0;" parent="THRzaVfOo93DXw_aaa8F-1" source="S9MEAJjue6eyXgCt8Uo4-2" target="THRzaVfOo93DXw_aaa8F-16" edge="1">
          <mxGeometry relative="1" as="geometry">
            <mxPoint x="135" y="70" as="sourcePoint" />
          </mxGeometry>
        </mxCell>
        <mxCell id="THRzaVfOo93DXw_aaa8F-16" value="Yêu cầu đăng nhập" style="rounded=1;whiteSpace=wrap;html=1;arcSize=40;fontColor=#000000;shadow=0;fontSize=16;fillColor=#FFFFFF;strokeColor=#000000;" parent="THRzaVfOo93DXw_aaa8F-1" vertex="1">
          <mxGeometry x="58.75" y="110" width="152.5" height="50" as="geometry" />
        </mxCell>
        <mxCell id="PxXzzGtLgVrhPU-m9N_G-12" style="edgeStyle=none;rounded=1;orthogonalLoop=1;jettySize=auto;html=1;entryX=0.5;entryY=0;entryDx=0;entryDy=0;fontSize=16;strokeColor=#000000;exitX=0.5;exitY=1;exitDx=0;exitDy=0;" parent="THRzaVfOo93DXw_aaa8F-1" source="THRzaVfOo93DXw_aaa8F-28" target="THRzaVfOo93DXw_aaa8F-34" edge="1">
          <mxGeometry relative="1" as="geometry">
            <mxPoint x="160" y="310" as="sourcePoint" />
          </mxGeometry>
        </mxCell>
        <mxCell id="THRzaVfOo93DXw_aaa8F-28" value="&lt;div&gt;Nhập mail và mật khẩu&lt;/div&gt;" style="rounded=1;whiteSpace=wrap;html=1;arcSize=40;fontColor=#000000;shadow=0;fontSize=16;fillColor=#FFFFFF;strokeColor=#000000;" parent="THRzaVfOo93DXw_aaa8F-1" vertex="1">
          <mxGeometry x="58.75" y="240" width="152.5" height="50" as="geometry" />
        </mxCell>
        <mxCell id="THRzaVfOo93DXw_aaa8F-34" value="Ấn nút đăng nhập" style="rounded=1;whiteSpace=wrap;html=1;arcSize=40;fontColor=#000000;shadow=0;fontSize=16;fillColor=#FFFFFF;strokeColor=#000000;" parent="THRzaVfOo93DXw_aaa8F-1" vertex="1">
          <mxGeometry x="60" y="330" width="150" height="50" as="geometry" />
        </mxCell>
        <mxCell id="S9MEAJjue6eyXgCt8Uo4-2" value="" style="ellipse;fillColor=#000000;strokeColor=none;" parent="THRzaVfOo93DXw_aaa8F-1" vertex="1">
          <mxGeometry x="120" y="40" width="30" height="30" as="geometry" />
        </mxCell>
        <mxCell id="THRzaVfOo93DXw_aaa8F-2" value="Hệ thống" style="swimlane;startSize=20;fontSize=16;dashed=1;" parent="1" vertex="1">
          <mxGeometry x="340" y="-20" width="270" height="640" as="geometry" />
        </mxCell>
        <mxCell id="THRzaVfOo93DXw_aaa8F-33" value="Xác minh tài khoản" style="rounded=1;whiteSpace=wrap;html=1;arcSize=40;shadow=0;fontSize=16;fillColor=#fff2cc;strokeColor=#d6b656;" parent="THRzaVfOo93DXw_aaa8F-2" vertex="1">
          <mxGeometry x="58.75" y="330" width="152.5" height="50" as="geometry" />
        </mxCell>
        <mxCell id="THRzaVfOo93DXw_aaa8F-19" value="" style="shape=rhombus;html=1;verticalLabelPosition=bottom;verticalAlignment=top;shadow=0;dashed=1;dashPattern=1 1;fontSize=16;strokeColor=#000000;strokeWidth=0;gradientColor=none;fillColor=#FFFFFF;" parent="THRzaVfOo93DXw_aaa8F-2" vertex="1">
          <mxGeometry x="115" y="410" width="40" height="40" as="geometry" />
        </mxCell>
        <mxCell id="THRzaVfOo93DXw_aaa8F-20" value="" style="html=1;elbow=horizontal;align=right;verticalAlign=bottom;endArrow=none;rounded=0;labelBackgroundColor=none;startArrow=open;fontSize=16;strokeColor=#000000;entryX=0.5;entryY=1;entryDx=0;entryDy=0;" parent="THRzaVfOo93DXw_aaa8F-2" source="THRzaVfOo93DXw_aaa8F-19" target="THRzaVfOo93DXw_aaa8F-33" edge="1">
          <mxGeometry relative="1" as="geometry">
            <mxPoint x="380" y="380" as="targetPoint" />
          </mxGeometry>
        </mxCell>
        <mxCell id="THRzaVfOo93DXw_aaa8F-42" style="rounded=1;orthogonalLoop=1;jettySize=auto;html=1;exitX=0.5;exitY=1;exitDx=0;exitDy=0;entryX=0.5;entryY=0;entryDx=0;entryDy=0;fontSize=16;strokeColor=#000000;" parent="THRzaVfOo93DXw_aaa8F-2" source="THRzaVfOo93DXw_aaa8F-40" target="S9MEAJjue6eyXgCt8Uo4-1" edge="1">
          <mxGeometry relative="1" as="geometry">
            <mxPoint x="135" y="580" as="targetPoint" />
          </mxGeometry>
        </mxCell>
        <mxCell id="THRzaVfOo93DXw_aaa8F-40" value="Hiển thị màn hình của App" style="rounded=1;whiteSpace=wrap;html=1;arcSize=40;shadow=0;fontSize=16;fillColor=#fff2cc;strokeColor=#d6b656;" parent="THRzaVfOo93DXw_aaa8F-2" vertex="1">
          <mxGeometry x="54.38" y="490" width="161.25" height="50" as="geometry" />
        </mxCell>
        <mxCell id="THRzaVfOo93DXw_aaa8F-22" value="&lt;font color=&quot;#000000&quot;&gt;true&lt;/font&gt;" style="html=1;elbow=vertical;verticalAlign=bottom;endArrow=open;rounded=0;labelBackgroundColor=none;fontSize=16;strokeColor=#000000;entryX=0.5;entryY=0;entryDx=0;entryDy=0;exitX=0.5;exitY=1;exitDx=0;exitDy=0;" parent="THRzaVfOo93DXw_aaa8F-2" source="THRzaVfOo93DXw_aaa8F-19" target="THRzaVfOo93DXw_aaa8F-40" edge="1">
          <mxGeometry x="0.3257" y="20" relative="1" as="geometry">
            <mxPoint x="135" y="490" as="targetPoint" />
            <mxPoint as="offset" />
          </mxGeometry>
        </mxCell>
        <mxCell id="THRzaVfOo93DXw_aaa8F-41" value="&lt;div&gt;Thông báo đăng nhập thất bại&lt;br&gt;&lt;/div&gt;" style="rounded=1;whiteSpace=wrap;html=1;arcSize=40;fontColor=#000000;shadow=0;fontSize=16;fillColor=#FFFFFF;strokeColor=#000000;" parent="THRzaVfOo93DXw_aaa8F-2" vertex="1">
          <mxGeometry x="50" y="240" width="152.5" height="50" as="geometry" />
        </mxCell>
        <mxCell id="THRzaVfOo93DXw_aaa8F-21" value="&lt;font color=&quot;#000000&quot;&gt;false&lt;/font&gt;" style="html=1;elbow=vertical;verticalAlign=bottom;endArrow=open;rounded=0;labelBackgroundColor=none;fontSize=16;strokeColor=#000000;edgeStyle=orthogonalEdgeStyle;entryX=1;entryY=0.5;entryDx=0;entryDy=0;" parent="THRzaVfOo93DXw_aaa8F-2" source="THRzaVfOo93DXw_aaa8F-19" target="THRzaVfOo93DXw_aaa8F-41" edge="1">
          <mxGeometry x="-0.6987" relative="1" as="geometry">
            <mxPoint x="250" y="524" as="targetPoint" />
            <Array as="points">
              <mxPoint x="250" y="430" />
              <mxPoint x="250" y="265" />
            </Array>
            <mxPoint as="offset" />
          </mxGeometry>
        </mxCell>
        <mxCell id="S9MEAJjue6eyXgCt8Uo4-1" value="" style="ellipse;html=1;shape=endState;fillColor=#000000;strokeColor=#000000;" parent="THRzaVfOo93DXw_aaa8F-2" vertex="1">
          <mxGeometry x="120" y="590" width="30" height="30" as="geometry" />
        </mxCell>
        <mxCell id="j4CEI_gcvZp7ecHWLUtV-1" value="Hiển thị màn hình đăng nhập" style="rounded=1;whiteSpace=wrap;html=1;arcSize=40;fontColor=#000000;shadow=0;fontSize=16;fillColor=#FFFFFF;strokeColor=#000000;" parent="THRzaVfOo93DXw_aaa8F-2" vertex="1">
          <mxGeometry x="58.75" y="150" width="152.5" height="50" as="geometry" />
        </mxCell>
        <mxCell id="KxFB7weYyqMvfq0GmS7c-1" value="Yêu cầu đăng nhập" style="rounded=1;whiteSpace=wrap;html=1;arcSize=40;fontColor=#000000;shadow=0;fontSize=16;fillColor=#FFFFFF;strokeColor=#000000;" parent="THRzaVfOo93DXw_aaa8F-2" vertex="1">
          <mxGeometry x="-211.25" y="110" width="152.5" height="50" as="geometry" />
        </mxCell>
        <mxCell id="KxFB7weYyqMvfq0GmS7c-2" value="&lt;div&gt;Nhập mail và mật khẩu&lt;/div&gt;" style="rounded=1;whiteSpace=wrap;html=1;arcSize=40;fontColor=#000000;shadow=0;fontSize=16;fillColor=#FFFFFF;strokeColor=#000000;" parent="THRzaVfOo93DXw_aaa8F-2" vertex="1">
          <mxGeometry x="-211.25" y="240" width="152.5" height="50" as="geometry" />
        </mxCell>
        <mxCell id="KxFB7weYyqMvfq0GmS7c-3" value="Ấn nút đăng nhập" style="rounded=1;whiteSpace=wrap;html=1;arcSize=40;fontColor=#000000;shadow=0;fontSize=16;fillColor=#FFFFFF;strokeColor=#000000;" parent="THRzaVfOo93DXw_aaa8F-2" vertex="1">
          <mxGeometry x="-210" y="330" width="150" height="50" as="geometry" />
        </mxCell>
        <mxCell id="KxFB7weYyqMvfq0GmS7c-4" value="Yêu cầu đăng nhập" style="rounded=1;whiteSpace=wrap;html=1;arcSize=40;fontColor=#000000;shadow=0;fontSize=16;fillColor=#FFFFFF;strokeColor=#000000;" parent="THRzaVfOo93DXw_aaa8F-2" vertex="1">
          <mxGeometry x="-211.25" y="110" width="152.5" height="50" as="geometry" />
        </mxCell>
        <mxCell id="KxFB7weYyqMvfq0GmS7c-5" value="&lt;div&gt;Nhập mail và mật khẩu&lt;/div&gt;" style="rounded=1;whiteSpace=wrap;html=1;arcSize=40;fontColor=#000000;shadow=0;fontSize=16;fillColor=#FFFFFF;strokeColor=#000000;" parent="THRzaVfOo93DXw_aaa8F-2" vertex="1">
          <mxGeometry x="-211.25" y="240" width="152.5" height="50" as="geometry" />
        </mxCell>
        <mxCell id="KxFB7weYyqMvfq0GmS7c-6" value="Ấn nút đăng nhập" style="rounded=1;whiteSpace=wrap;html=1;arcSize=40;fontColor=#000000;shadow=0;fontSize=16;fillColor=#FFFFFF;strokeColor=#000000;" parent="THRzaVfOo93DXw_aaa8F-2" vertex="1">
          <mxGeometry x="-210" y="330" width="150" height="50" as="geometry" />
        </mxCell>
        <mxCell id="KxFB7weYyqMvfq0GmS7c-7" value="Yêu cầu đăng nhập" style="rounded=1;whiteSpace=wrap;html=1;arcSize=40;shadow=0;fontSize=16;fillColor=#fff2cc;strokeColor=#d6b656;" parent="THRzaVfOo93DXw_aaa8F-2" vertex="1">
          <mxGeometry x="-211.25" y="110" width="152.5" height="50" as="geometry" />
        </mxCell>
        <mxCell id="KxFB7weYyqMvfq0GmS7c-8" value="&lt;div&gt;Nhập mail và mật khẩu&lt;/div&gt;" style="rounded=1;whiteSpace=wrap;html=1;arcSize=40;shadow=0;fontSize=16;fillColor=#fff2cc;strokeColor=#d6b656;" parent="THRzaVfOo93DXw_aaa8F-2" vertex="1">
          <mxGeometry x="-211.25" y="240" width="152.5" height="50" as="geometry" />
        </mxCell>
        <mxCell id="KxFB7weYyqMvfq0GmS7c-9" value="Ấn nút đăng nhập" style="rounded=1;whiteSpace=wrap;html=1;arcSize=40;shadow=0;fontSize=16;fillColor=#fff2cc;strokeColor=#d6b656;" parent="THRzaVfOo93DXw_aaa8F-2" vertex="1">
          <mxGeometry x="-210" y="330" width="150" height="50" as="geometry" />
        </mxCell>
        <mxCell id="KxFB7weYyqMvfq0GmS7c-10" value="Hiển thị màn hình đăng nhập" style="rounded=1;whiteSpace=wrap;html=1;arcSize=40;shadow=0;fontSize=16;fillColor=#fff2cc;strokeColor=#d6b656;" parent="THRzaVfOo93DXw_aaa8F-2" vertex="1">
          <mxGeometry x="58.75" y="150" width="152.5" height="50" as="geometry" />
        </mxCell>
        <mxCell id="KxFB7weYyqMvfq0GmS7c-11" value="&lt;div&gt;Thông báo đăng nhập thất bại&lt;br&gt;&lt;/div&gt;" style="rounded=1;whiteSpace=wrap;html=1;arcSize=40;shadow=0;fontSize=16;fillColor=#fff2cc;strokeColor=#d6b656;" parent="THRzaVfOo93DXw_aaa8F-2" vertex="1">
          <mxGeometry x="50" y="240" width="152.5" height="50" as="geometry" />
        </mxCell>
        <mxCell id="THRzaVfOo93DXw_aaa8F-38" style="edgeStyle=none;rounded=1;orthogonalLoop=1;jettySize=auto;html=1;exitX=1;exitY=0.5;exitDx=0;exitDy=0;entryX=0;entryY=0.5;entryDx=0;entryDy=0;fontSize=16;strokeColor=#000000;" parent="1" source="THRzaVfOo93DXw_aaa8F-34" target="THRzaVfOo93DXw_aaa8F-33" edge="1">
          <mxGeometry relative="1" as="geometry" />
        </mxCell>
        <mxCell id="THRzaVfOo93DXw_aaa8F-43" style="edgeStyle=none;rounded=1;orthogonalLoop=1;jettySize=auto;html=1;exitX=0;exitY=0.5;exitDx=0;exitDy=0;entryX=1;entryY=0.5;entryDx=0;entryDy=0;fontSize=16;strokeColor=#000000;" parent="1" source="THRzaVfOo93DXw_aaa8F-41" target="THRzaVfOo93DXw_aaa8F-28" edge="1">
          <mxGeometry relative="1" as="geometry" />
        </mxCell>
        <mxCell id="PxXzzGtLgVrhPU-m9N_G-18" style="edgeStyle=none;rounded=1;orthogonalLoop=1;jettySize=auto;html=1;entryX=0.5;entryY=0;entryDx=0;entryDy=0;fontSize=16;strokeColor=#000000;" parent="1" source="j4CEI_gcvZp7ecHWLUtV-1" target="THRzaVfOo93DXw_aaa8F-28" edge="1">
          <mxGeometry relative="1" as="geometry">
            <mxPoint x="205.09500000000003" y="170" as="targetPoint" />
          </mxGeometry>
        </mxCell>
        <mxCell id="j4CEI_gcvZp7ecHWLUtV-3" style="edgeStyle=none;rounded=1;orthogonalLoop=1;jettySize=auto;html=1;exitX=1;exitY=0.5;exitDx=0;exitDy=0;entryX=0;entryY=0.5;entryDx=0;entryDy=0;fontSize=16;strokeColor=#000000;" parent="1" source="THRzaVfOo93DXw_aaa8F-16" target="j4CEI_gcvZp7ecHWLUtV-1" edge="1">
          <mxGeometry relative="1" as="geometry">
            <mxPoint x="215" y="230" as="targetPoint" />
            <mxPoint x="400" y="123" as="sourcePoint" />
          </mxGeometry>
        </mxCell>
      </root>
    </mxGraphModel>
  </diagram>
</mxfile>
